<svg width="821" height="802" viewBox="0 0 821 802" fill="none" xmlns="http://www.w3.org/2000/svg">
<g opacity="0.1">
<path d="M787.49 401C787.49 622.466 611.204 802 393.745 802C176.286 802 0 622.466 0 401C0 179.534 176.286 0 393.745 0C611.204 0 787.49 179.534 787.49 401Z" fill="#3C61FF"/>
<path d="M636.694 401C636.694 537.649 527.922 648.426 393.745 648.426C259.568 648.426 150.796 537.649 150.796 401C150.796 264.351 259.568 153.574 393.745 153.574C527.922 153.574 636.694 264.351 636.694 401Z" fill="white"/>
<path d="M301.592 401C301.592 424.56 282.838 443.66 259.704 443.66C236.57 443.66 217.816 424.56 217.816 401C217.816 377.44 236.57 358.34 259.704 358.34C282.838 358.34 301.592 377.44 301.592 401Z" fill="#334D6E"/>
<path d="M435.633 401C435.633 424.56 416.879 443.66 393.745 443.66C370.611 443.66 351.857 424.56 351.857 401C351.857 377.44 370.611 358.34 393.745 358.34C416.879 358.34 435.633 377.44 435.633 401Z" fill="#334D6E"/>
<path d="M569.673 401C569.673 424.56 550.92 443.66 527.786 443.66C504.652 443.66 485.898 424.56 485.898 401C485.898 377.44 504.652 358.34 527.786 358.34C550.92 358.34 569.673 377.44 569.673 401Z" fill="#334D6E"/>
<path d="M821 750.809L586.429 734.247L787.49 375.404L821 750.809Z" fill="#3C61FF"/>
</g>
</svg>
